<svg width="50" height="50" viewBox="0 0 50 50" fill="none" xmlns="http://www.w3.org/2000/svg">
<g clip-path="url(#clip0_3_8)">
<path d="M38.0462 16.1589C37.7196 15.8416 37.2614 15.6973 36.8131 15.7711C36.3638 15.8445 35.9759 16.1266 35.7675 16.5312C35.0508 17.9235 34.1405 19.203 33.0695 20.3341C33.1763 19.517 33.23 18.6951 33.23 17.871C33.23 16.2896 33.0181 14.6623 32.5999 13.0337C31.2249 7.68426 27.6194 3.16031 22.7082 0.621914C22.2806 0.400989 21.7711 0.408746 21.3505 0.642599C20.9298 0.876549 20.6543 1.30547 20.6165 1.78525C20.2337 6.64657 17.7296 11.0693 13.7427 13.9223C13.69 13.9603 13.6376 13.9988 13.5852 14.0371C13.4767 14.1165 13.3744 14.1916 13.2789 14.2546C13.2639 14.2645 13.2491 14.2747 13.2345 14.2851C10.7271 16.0804 8.6581 18.4735 7.25105 21.2065C5.8213 23.9864 5.09637 26.9695 5.09637 30.0727C5.09637 31.6536 5.3083 33.2809 5.7263 34.9098C7.93221 43.4957 15.6588 49.4922 24.5159 49.4922C35.2233 49.4922 43.9343 40.7806 43.9343 30.0727C43.9343 24.7924 41.8432 19.851 38.0462 16.1589Z" fill="#FF5555"/>
<circle cx="23.0733" cy="29.3031" r="5.76832" fill="white"/>
</g>
<defs>
<clipPath id="clip0_3_8">
<rect width="49.0308" height="49.0308" fill="white" transform="translate(0 0.461548)"/>
</clipPath>
</defs>
</svg>
