<svg width="96" height="44" viewBox="0 0 96 44" fill="none" xmlns="http://www.w3.org/2000/svg">
<path d="M9.18117 34.0273C10.6751 34.0273 11.9966 33.7544 13.1458 33.2086C14.2949 32.634 15.1711 31.7721 15.7744 30.623V33.5102H21.8075V9.9813H15.3435V23.7281C15.3435 25.0783 14.9413 26.17 14.1369 27.0031C13.3325 27.8076 12.2983 28.2098 11.0342 28.2098C9.77011 28.2098 8.73588 27.8076 7.93147 27.0031C7.12706 26.17 6.72486 25.0783 6.72486 23.7281V9.9813H0.260864V24.2452C0.260864 27.1755 1.02218 29.5456 2.54481 31.3556C4.09617 33.1368 6.30829 34.0273 9.18117 34.0273Z" fill="black"/>
<path d="M26.5319 7.86972H32.9959V1.40573H26.5319V7.86972ZM26.5319 33.5102H32.9959V9.9813H26.5319V33.5102Z" fill="black"/>
<path d="M40.5703 33.5102H47.0342V15.5834H52.0762V9.9813H47.0342V9.63655C47.0342 7.53934 48.2552 6.49074 50.6972 6.49074C51.0994 6.49074 51.5734 6.53383 52.1193 6.62002V1.10408C51.4585 0.960433 50.6972 0.888611 49.8353 0.888611C46.905 0.888611 44.621 1.64993 42.9835 3.17255C41.3747 4.69518 40.5703 6.84985 40.5703 9.63655V9.9813H36.6057V15.5834H40.5703V33.5102Z" fill="black"/>
<path d="M55.4011 33.5102H61.8651V20.8408C61.8651 19.0883 62.3535 17.7381 63.3302 16.79C64.307 15.8133 65.5854 15.3249 67.1655 15.3249H69.1909V9.72273H67.8119C66.3755 9.72273 65.0971 9.99566 63.9766 10.5415C62.8849 11.0586 62.0374 12.0498 61.4341 13.5149V9.9813H55.4011V33.5102Z" fill="black"/>
<path d="M75.6869 43.0769C79.9962 43.0769 83.1133 40.6206 85.0381 35.708L95.122 9.9813H88.184L82.6249 25.107L77.0659 9.9813H70.1279L79.3929 33.5102L78.962 34.5014C78.6172 35.2771 78.1719 35.9665 77.6261 36.5699C77.0802 37.1732 76.1753 37.4748 74.9112 37.4748C73.877 37.4748 72.9002 37.3312 71.9809 37.0439V42.3444C72.4693 42.6029 73.0295 42.7896 73.6615 42.9046C74.3223 43.0195 74.9974 43.0769 75.6869 43.0769Z" fill="black"/>
</svg>
